<svg xmlns="http://www.w3.org/2000/svg" enable-background="new 0 0 576.505 319.926" viewBox="0 0 576.505 319.926"><path d="M36.6538 13.2631c0-1.2207-.9897-2.2104-2.2105-2.2104-1.2209 0-2.2106.9897-2.2106 2.2104 0 1.2209.9897 2.2106 2.2106 2.2106C35.6641 15.4736 36.6538 14.484 36.6538 13.2631zM104.6749 13.2631c0 1.2209.9897 2.2106 2.2105 2.2106s2.2105-.9896 2.2105-2.2106c0-1.2207-.9897-2.2104-2.2105-2.2104S104.6749 12.0424 104.6749 13.2631z"/><path d="M544.6829,0h-77.6841c-5.4099,0-10.084,3.2861-12.1416,7.9579H121.6479C119.5904,3.2861,114.9163,0,109.5065,0H31.8222
		c-5.4099,0-10.0839,3.2861-12.1414,7.9579H0v10.6106h19.6808c2.0575,4.6716,6.7314,7.9578,12.1414,7.9578h5.6368V127.421H16.3854
		v181.8948H3.5643v10.6105h107.4948v-10.6105h-18.8V81.8763h3.4105v-3.5685h4.6948c2.5475,0,4.8362-1.1455,6.3911-2.9413
		l79.1478,55.9594c-0.1024,0.3676-0.1749,0.7474-0.1749,1.1477c0,2.3719,1.9228,4.2948,4.2947,4.2948
		c0.9194,0,1.7668-0.2944,2.4655-0.7865l23.6445,16.7173l-2.3957,10.3026c-0.4893,2.1055,0.0171,4.2695,1.3901,5.9395
		c1.3213,1.6064,3.2476,2.5137,5.3159,2.5137c0.0811,0,0.1621-0.001,0.2437-0.0039l7.1294-0.2451
		c2.7433-0.093,5.1351-1.812,6.1452-4.2966c-0.7142,0.015-1.4386-0.0403-2.1649-0.1724l-0.2541-0.0492l-1.8425-0.41
		c-0.5117,0.5525-1.2296,0.9036-2.0195,0.9302l-7.1309,0.2451c-0.9175,0.0195-1.7578-0.3525-2.333-1.0527
		c-0.5762-0.7012-0.7886-1.6094-0.583-2.4922l2.0648-8.8794c0.0867,0.0154,0.1727,0.0396,0.2599,0.0396
		c0.4031,0,0.7939-0.1708,1.0833-0.4767c0.0485-0.0514,0.1009-0.0978,0.1428-0.1571c0.3101-0.4385,0.3478-0.9841,0.1547-1.4452
		c-0.105-0.2505-0.2753-0.4772-0.5135-0.6456l-0.4318-0.3053l2.7462-11.8099c0.2051-0.8838,0.7969-1.6045,1.623-1.9785
		c0.3833-0.1738,0.7896-0.2607,1.1948-0.2607c0.4683,0,0.9346,0.1152,1.3633,0.3447l6.2905,3.3662
		c1.1509,0.6152,1.7485,1.9336,1.4526,3.2051l-0.0068,0.0295l0.9683,0.215c5.8945,1.2137,9.732,7.0427,8.5089,12.9833
		c-0.2166,1.0515-0.5855,2.0366-1.0726,2.9429l10.8574-2.426c1.0996-0.2456,2.1357-0.7212,3.0391-1.3945l3.848-2.8698v45.0735
		l-8.5302,104.59c-0.5547,6.8071,4.5136,12.7726,11.3184,13.3273c6.8047,0.5542,12.7733-4.5099,13.328-11.3174l7.4287-91.084h7.0021
		l7.4287,91.084c0.5547,6.8075,6.5233,11.8716,13.328,11.3174c6.8048-0.5547,11.8732-6.5201,11.3185-13.3273l-8.5304-104.5908
		v-45.0724l3.8475,2.8695c0.9033,0.6733,1.9395,1.1489,3.0391,1.3945l10.8577,2.426c-0.4871-0.9063-0.8562-1.8914-1.0728-2.9429
		c-1.2231-5.9406,2.6144-11.7695,8.5089-12.9833l0.9689-0.2152l-0.0068-0.0293c-0.2959-1.2715,0.3008-2.5898,1.4512-3.2051
		l6.291-3.3662c0.4287-0.2295,0.8955-0.3447,1.3633-0.3447c0.4053,0,0.8115,0.0869,1.1953,0.2598
		c0.8262,0.375,1.418,1.0967,1.623,1.9795l2.7465,11.8098l-0.432,0.3054c-0.2382,0.1687-0.4086,0.3955-0.5134,0.6465
		c-0.1926,0.4608-0.1548,1.0061,0.155,1.4443c0.0417,0.0591,0.0939,0.1052,0.1421,0.1564c0.2893,0.3063,0.6802,0.4774,1.0835,0.4774
		c0.0874,0,0.1735-0.0242,0.2603-0.0396l2.0649,8.8794c0.2051,0.8828-0.0068,1.791-0.584,2.4912
		c-0.5752,0.7012-1.4229,1.0869-2.333,1.0537l-7.1299-0.2451c-0.7903-0.0266-1.5083-0.3777-2.02-0.9302l-1.8425,0.41l-0.2542,0.0492
		c-0.7263,0.1321-1.4509,0.1874-2.1652,0.1724c1.0107,2.4843,3.4028,4.2036,6.1451,4.2966l7.1299,0.2451
		c0.0811,0.0029,0.1621,0.0039,0.2432,0.0039c2.0684,0,3.9951-0.9082,5.3164-2.5137c1.373-1.6699,1.8799-3.834,1.3906-5.9395
		l-2.3958-10.3022l23.6445-16.7173c0.6985,0.4917,1.5457,0.7861,2.465,0.7861c2.3719,0,4.2948-1.9229,4.2948-4.2948
		c0-0.4-0.0724-0.7797-0.1748-1.1471l79.1479-55.96c1.5549,1.7959,3.8436,2.9413,6.3911,2.9413h4.6947v3.5685h3.4105v227.4395h-18.8
		v10.6105h107.4948v-10.6105h-12.821V127.421h-21.0736V26.5262h5.6367c5.4099,0,10.084-3.2861,12.1415-7.9578h19.6808V7.9579
		h-19.6807C554.7669,3.2861,550.0928,0,544.6829,0z M469.6198,7.7684c3.0347,0,5.4948,2.46,5.4948,5.4946
		s-2.4601,5.4949-5.4948,5.4949c-3.0345,0-5.4948-2.4602-5.4948-5.4949S466.5853,7.7684,469.6198,7.7684z M112.3801,13.2631
		c0,3.0347-2.4601,5.4949-5.4948,5.4949s-5.4948-2.4602-5.4948-5.4949s2.4601-5.4946,5.4948-5.4946
		S112.3801,10.2284,112.3801,13.2631z M28.9485,13.2631c0-3.0347,2.4601-5.4946,5.4948-5.4946c3.0346,0,5.4947,2.46,5.4947,5.4946
		s-2.4601,5.4949-5.4947,5.4949C31.4086,18.7579,28.9485,16.2977,28.9485,13.2631z M41.7748,26.5262h10.2316V127.421H41.7748
		V26.5262z M81.6486,309.3158h-6.2947V127.421H62.6169V26.5262h19.0316v31.2869H78.238v24.0632h3.4106V309.3158z M100.9959,73.0026
		c-1.7441,0-3.1579-1.4138-3.1579-3.1578s1.4138-3.1578,3.1579-3.1578c1.744,0,3.1579,1.4138,3.1579,3.1578
		c0,0.0028-0.0009,0.0055-0.0009,0.0084l-0.1695-0.1199c-0.6758-0.4805-1.6128-0.3174-2.0903,0.3584
		c-0.4785,0.6768-0.3179,1.6123,0.3589,2.0908l0.4459,0.3153C102.2061,72.8141,101.6241,73.0026,100.9959,73.0026z
		 M475.5093,73.0026c-0.6282,0-1.2102-0.1885-1.7019-0.5046l0.446-0.3154c0.6758-0.4785,0.8369-1.4141,0.3584-2.0908
		c-0.4775-0.6758-1.4131-0.8379-2.0908-0.3584l-0.1688,0.1194c0-0.0027-0.0009-0.0052-0.0009-0.0079
		c0-1.744,1.4138-3.1578,3.158-3.1578c1.744,0,3.1578,1.4138,3.1578,3.1578S477.2534,73.0026,475.5093,73.0026z M476.1409,61.3815
		c-4.6548,0-8.4631,3.8086-8.4631,8.4633c0,1.0314,0.196,2.0167,0.5377,2.9327l-79.3683,56.1155
		c-0.6787-0.4492-1.4905-0.7141-2.3654-0.7141c-2.3719,0-4.2948,1.9229-4.2948,4.2948c0,0.3571,0.0564,0.6986,0.1384,1.0304
		l-22.687,16.0403l-2.3772-10.2222c-0.4902-2.1055-1.9004-3.8242-3.8691-4.7158c-1.9697-0.8916-4.1914-0.8184-6.0957,0.2002
		l-6.292,3.3662c-2.7025,1.447-4.1138,4.52-3.4788,7.5103l-10.1843-2.2754l-13.124-9.7891
		c-0.7439-0.5542-1.5543-0.9513-2.3923-1.2136c-0.2855-0.1888-0.5869-0.354-0.8973-0.5042
		c-3.859,8.6926-12.5675,14.7732-22.6747,14.7732c-10.1074,0-18.8159-6.0808-22.6748-14.7734
		c-0.3104,0.1501-0.6121,0.3153-0.8976,0.5042c-0.8383,0.2623-1.649,0.6594-2.3932,1.2139l-13.124,9.7891l-10.1842,2.2754
		c0.6351-2.9904-0.7762-6.0632-3.4802-7.5103l-6.2905-3.3662c-1.9072-1.0195-4.1284-1.0918-6.0967-0.2002
		c-1.9688,0.8916-3.3784,2.6113-3.8682,4.7158l-2.377,10.2224l-22.6873-16.0405c0.0822-0.3318,0.1384-0.6733,0.1384-1.0304
		c0-2.3719-1.9229-4.2948-4.2947-4.2948c-0.8749,0-1.6867,0.2649-2.3655,0.7141l-79.368-56.1152
		c0.3417-0.916,0.5379-1.9016,0.5379-2.933c0-4.6547-3.8084-8.4633-8.4631-8.4633h-4.6948v-3.5684H92.259V26.5262h17.2474
		c5.4099,0,10.0839-3.2861,12.1414-7.9578h333.2095c2.0575,4.6716,6.7316,7.9578,12.1415,7.9578h17.2473v31.2869h-3.4105v3.5684
		H476.1409z M494.8568,81.8763h3.4104V57.8131h-3.4104V26.5262h19.0315V127.421h-12.7368v181.8948h-6.2947V81.8763z
		 M534.7303,127.421h-10.2314V26.5262h10.2314V127.421z M542.062,18.7579c-3.0347,0-5.4948-2.4602-5.4948-5.4949
		s2.4601-5.4946,5.4948-5.4946s5.4948,2.46,5.4948,5.4946S545.0966,18.7579,542.062,18.7579z"/><path d="M542.062 11.0526c-1.2208 0-2.2106.9897-2.2106 2.2104 0 1.2209.9897 2.2106 2.2106 2.2106s2.2106-.9896 2.2106-2.2106C544.2725 12.0424 543.2828 11.0526 542.062 11.0526zM469.6198 15.4736c1.2208 0 2.2106-.9896 2.2106-2.2106 0-1.2207-.9897-2.2104-2.2106-2.2104s-2.2106.9897-2.2106 2.2104C467.4092 14.484 468.399 15.4736 469.6198 15.4736zM241.5962 157.5275c.8912-4.3279-1.895-8.5581-6.2222-9.4497l-6.2932-1.4009c-4.338-.8931-7.5542 14.78-3.2269 15.6716l6.2932 1.4009c.0622.0128.1236.0244.186.0359C236.5942 164.5601 240.7174 161.7926 241.5962 157.5275zM350.6509 162.3485c4.3274-.8916 1.1111-16.5647-3.2268-15.6716l-6.2932 1.4009c-4.3271.8916-7.1134 5.1218-6.2222 9.4497.8787 4.2651 5.002 7.0326 9.2631 6.2578.0625-.0115.1239-.0231.1862-.0359L350.6509 162.3485z"/><circle cx="288.253" cy="121.874" r="22.5"/></svg>