<svg xmlns="http://www.w3.org/2000/svg" enable-background="new 0 0 324.885 171.033" viewBox="0 0 324.885 171.033"><path d="M216.3482 126.5463l-2.5966-15.6916c-.4761-2.8775-1.9701-5.4791-4.1937-7.355l1.033 23.0466H216.3482zM123.944 141.3339c-5.6758-.2549-10.084-5.0776-9.8311-10.751l.0778-1.7368H63.084V96.4882c0-2.1997-1.7998-4-4-4h-.7158c-1.8594 0-3.4209 1.2925-3.8633 3.02-.4414-1.7275-2.002-3.02-3.8623-3.02h-.7158c-1.8037 0-3.3223 1.2188-3.8164 2.8682-.4932-1.6494-2.0107-2.8682-3.8154-2.8682h-.7158c-2.1992 0-4 1.8003-4 4v20.958.6001h-6.8203v10.7998H0v5.5581h30.7588v10.7998h6.8203v.6001 20.958c0 2.2002 1.8008 4 4 4h.7158c1.8047 0 3.3223-1.2178 3.8154-2.8672.4941 1.6494 2.0127 2.8672 3.8164 2.8672h.7158c1.8604 0 3.4209-1.292 3.8623-3.0195.4424 1.7275 2.0039 3.0195 3.8633 3.0195h.7158c2.2002 0 4-1.7998 4-4v-32.3579h2.2994 41.853l-3.703 22.3767c-1.105 6.6748 3.4106 12.981 10.0854 14.0854.6772.1123 1.3506.1665 2.0146.1665 5.8857 0 11.0786-4.2544 12.0708-10.252l3.6655-22.1497c-1.8344 1.6846-4.2766 2.7123-6.9609 2.7123C124.2545 141.3436 124.0992 141.3407 123.944 141.3339z"/><path d="M115.3268 103.4999c-2.2234 1.876-3.7172 4.4774-4.1934 7.3547l-2.5967 15.6916h5.7571L115.3268 103.4999zM261.8105 166.7621c0 2.2002 1.7998 4 4 4h.7158c1.8594 0 3.4209-1.292 3.8633-3.0195.4414 1.7275 2.0029 3.0195 3.8633 3.0195h.7158c1.7979 0 3.3115-1.2109 3.8105-2.8516.499 1.6416 2.0117 2.8516 3.8105 2.8516h.7158c2.2002 0 4-1.7998 4-4V145.204h6.8213v-10.7998h30.7578v-5.5581h-30.7578v-10.7998h-6.8213V96.4882c0-2.1997-1.7998-4-4-4h-.7158c-1.7988 0-3.3115 1.2109-3.8105 2.8516-.499-1.6411-2.0127-2.8516-3.8105-2.8516h-.7158c-1.8604 0-3.4219 1.292-3.8633 3.0195-.4424-1.7275-2.0039-3.0195-3.8633-3.0195h-.7158c-2.2002 0-4 1.7998-4 4v32.3579H210.694l.0778 1.7368c.2529 5.6733-4.1553 10.4961-9.8311 10.751-.1553.0068-.3105.0098-.4648.0098-2.6843 0-5.1264-1.0277-6.9608-2.7122l3.6652 22.1495c.9922 5.998 6.1846 10.2524 12.0708 10.252.6641 0 1.3379-.0542 2.0146-.1665 6.6748-1.1045 11.1899-7.4106 10.0854-14.0854l-3.7028-22.3767h41.8619 2.3002V166.7621zM190.1918 131.5052l-.1192-2.6591h-55.2604l-.1192 2.6591c-.0454 1.0135-.2374 1.9855-.5507 2.899h56.6002C190.4291 133.4908 190.2372 132.5187 190.1918 131.5052z"/><path d="M118.8737,75.7382l-2.4629,54.9473c-0.1973,4.4141,3.2197,8.1523,7.6338,8.3506c0.1221,0.0054,0.2432,0.0078,0.3643,0.0078
		c4.2539,0,7.7939-3.3501,7.9863-7.6416l2.4404-54.4473c1.2044-6.8256,3.8439-13.352,6.7945-18.9855l2.3046,0.5612
		c-2.9432,5.5275-5.6013,11.9639-6.8081,18.6788l-1.8694,41.7087l23.2479-18.5649c1.8937-1.5122,3.2091-3.475,3.9373-5.6104
		c0.7281,2.1354,2.0436,4.0982,3.9373,5.6104l23.248,18.5646l-1.8694-41.7084c-1.2068-6.7149-3.8649-13.1513-6.8081-18.6788
		l2.3046-0.5612c2.9506,5.6335,5.5901,12.16,6.7945,18.9855l2.4404,54.4473c0.1924,4.2915,3.7324,7.6416,7.9863,7.6416
		c0.1211,0,0.2422-0.0024,0.3643-0.0078c4.4141-0.1982,7.8311-3.9365,7.6338-8.3506l-2.4629-54.9473
		c-0.0146-0.3208-0.0479-0.6401-0.1006-0.957c-1.2399-7.437-3.7692-14.4651-6.7192-20.6923
		c-4.7143-9.9514-10.5065-17.845-13.8696-22.0227c-3.7515,8.9389-12.593,15.2338-22.8787,15.2338
		c-10.2861,0-19.1277-6.2954-22.879-15.2348c-3.363,4.1775-9.1558,12.0715-13.8705,22.0237
		c-2.95,6.2272-5.4793,13.2553-6.7192,20.6923C118.9215,75.098,118.8883,75.4174,118.8737,75.7382z"/><circle cx="162.443" cy="22.5" r="22.5"/></svg>