<svg xmlns="http://www.w3.org/2000/svg" enable-background="new 0 0 252.986 236.991" viewBox="0 0 252.986 236.991"><circle cx="126.493" cy="22.5" r="22.5"/><path d="M15.2109,28.3167C6.8102,28.3167,0,35.1267,0,43.5273S6.8102,58.738,15.2109,58.738s15.2108-6.81,15.2108-15.2106
		S23.6116,28.3167,15.2109,28.3167z M15.2109,50.6881c-3.9548,0-7.1608-3.206-7.1608-7.1608s3.206-7.1608,7.1608-7.1608
		s7.1608,3.206,7.1608,7.1608S19.1656,50.6881,15.2109,50.6881z"/><path d="M18.2205 43.5273c0-1.6622-1.3474-3.0096-3.0096-3.0096s-3.0096 1.3475-3.0096 3.0096c0 1.6621 1.3474 3.0096 3.0096 3.0096S18.2205 45.1895 18.2205 43.5273zM222.1967 35.5699l-31.2455 18.0002-44.21-2.8105c-.3057-.0367-.6151-.0613-.9307-.0613h-38.6348c-.3156 0-.6249.0245-.9305.0613l-44.2106 2.8106L30.7893 35.57c1.2263 2.3907 1.9321 5.0909 1.9321 7.9575 0 3.6559-1.1298 7.051-3.0536 9.8621l26.4714 15.2499c1.2173.7012 2.5947 1.0679 3.9937 1.0679.1689 0 .3384-.0054.5078-.0161l38.8066-2.4672v51.8079l-8.5302 104.59c-.5547 6.8071 4.5136 12.7725 11.3183 13.3272 6.8047.5542 12.7734-4.5098 13.3281-11.3174l7.4287-91.084h7.0021l7.4286 91.084c.5547 6.8076 6.5234 11.8716 13.3281 11.3174 6.8047-.5547 11.8731-6.5201 11.3184-13.3272l-8.5303-104.5909V67.2241l38.8062 2.4671c.1694.0107.3389.0161.5078.0161 1.3984 0 2.7764-.3667 3.9937-1.0679l26.4715-15.2499c-1.9238-2.811-3.0536-6.2061-3.0536-9.8621C220.2646 40.6608 220.9705 37.9607 222.1967 35.5699z"/><path d="M252.986,43.5273c0-8.4006-6.8101-15.2107-15.2108-15.2107c-8.4008,0-15.2109,6.8101-15.2109,15.2107
		s6.8101,15.2106,15.2109,15.2106C246.1758,58.738,252.986,51.928,252.986,43.5273z M237.7751,50.6881
		c-3.9548,0-7.1608-3.206-7.1608-7.1608s3.206-7.1608,7.1608-7.1608s7.1608,3.206,7.1608,7.1608S241.7299,50.6881,237.7751,50.6881z
		"/><path d="M237.7751,40.5177c-1.6622,0-3.0096,1.3475-3.0096,3.0096c0,1.6621,1.3475,3.0096,3.0096,3.0096
		s3.0096-1.3475,3.0096-3.0096C240.7847,41.8652,239.4373,40.5177,237.7751,40.5177z"/></svg>