<svg xmlns="http://www.w3.org/2000/svg" enable-background="new 0 0 207.675 168.079" viewBox="0 0 207.675 168.079"><circle cx="185.174" cy="22.501" r="22.5" transform="rotate(-9.495 185.182 22.475)"/><path d="M173.6139 133.1294h2.3231c2.9893 0 5.4209 2.4316 5.4209 5.4209v17.6631h-5.5156v10h21.0317v-10h-5.5161v-17.6631c0-8.5029-6.918-15.4209-15.4209-15.4209h-5.7246l3.0875 3.5273C174.9254 128.5139 174.9866 131.2005 173.6139 133.1294zM14.0651 165.2613c-2.5869-2.9893-3.8545-6.8071-3.5693-10.75.2832-3.9156 2.067-7.487 5.0203-10.0694v-5.8916c0-2.9893 2.4316-5.4209 5.4209-5.4209h7.6503l11.5599-10H20.937c-8.5029 0-15.4209 6.918-15.4209 15.4209v17.6631H0v10h14.9829C14.6669 165.9079 14.3552 165.5968 14.0651 165.2613zM60.6276 105.0871H20.5475c-3.8905 0-7.0737 3.1832-7.0737 7.0737 0 3.8906 3.1832 7.0737 7.0737 7.0737h24.1022l15.8001-13.668L60.6276 105.0871zM159.4061 72.7323l17.7401-11.1816c3.2864-2.0823 4.2716-6.4748 2.1894-9.7612v-.0001c-2.0823-3.2864-6.4748-4.2716-9.7612-2.1893L157.7549 57.05 159.4061 72.7323zM146.2142 121.2487c-1.8997-2.1703-1.6794-5.4818.4913-7.3817l2.145-1.8774-11.4355-21.8499-1.3956-2.6666 4.0753-2.5687c-.1295-.4951-.2258-.9993-.2795-1.5092l-1.4847-14.1019-42.8843 27.03-7.5305 20.3082c.6883.2927 1.3293.3251 1.8586-.0102l37.7578-23.7987 1.3956 2.6666 14.4659 27.6403H84.8326c-.6344.8477-1.3406 1.6425-2.1444 2.338l-8.8573 7.6621h82.7822L146.2142 121.2487z"/><path d="M165.7788 114.7145l-3.3903 2.9675-5.2484-5.9963c-1.0619-1.2132-2.9233-1.3367-4.1365-.2747l-4.7831 4.1865c-1.2132 1.0619-1.3373 2.9233-.2755 4.1365l14.4296 16.4857c1.0619 1.2132 2.9233 1.3367 4.1365.2748l4.783-4.1865c1.2132-1.0619 1.3373-2.9232.2755-4.1365l-5.2484-5.9963 3.743-3.2762c-.7116-.4651-1.3752-1.0088-1.9581-1.645L165.7788 114.7145zM184.9839 105.8402l3.7213-3.2571 5.2484 5.9963c1.0619 1.2133 2.9233 1.3367 4.1357.2755l4.7838-4.1871c1.2132-1.062 1.3366-2.9226.2747-4.1359l-14.4296-16.4857c-1.0619-1.2133-2.9225-1.3373-4.1358-.2755l-4.7838 4.1871c-1.2125 1.0613-1.3366 2.9226-.2747 4.1359l5.2484 5.9962-3.4887 3.0536 2.009 2.1921C183.9951 104.1019 184.5563 104.9479 184.9839 105.8402zM62.4011 106.9195l-45.3213 39.2061c-5.2217 4.5166-5.792 12.4106-1.2754 17.6313 2.4717 2.8579 5.9551 4.3223 9.459 4.3223 2.8975 0 5.8086-1.002 8.1719-3.0464l47.748-41.3052c1.5918-1.377 2.8105-3.1338 3.542-5.1074L98.279 82.0686l2.408.1208-3.5249 9.506 7.8642-4.9568v-.0823c.0595-.0095.1213-.022.1812-.0319l32.7728-20.6567-2.2081-20.973c-.5957-5.6479 3.5156-10.7271 9.1641-11.3218.3662-.0391.7314-.0581 1.0918-.0581 5.2783 0 9.6768 3.9648 10.2305 9.2227l1.1462 10.887 3.6561-2.3044c5.4744-9.1191 4.0157-18.7585-.4078-24.3019-5.4852-6.8763-17.8792-5.3337-25.7361 1.4164-11.587 8.3151-27.8212 21.0869-44.4128 26.144-4.8795 1.8932-7.8182 3.6558-9.3914 5.5601-1.3641 1.2809-2.4692 2.8785-3.1638 4.7521l-5.8455 15.7639L62.4011 106.9195z"/><path d="M142.1022,83.1539c0.1797,1.7031,0.9004,3.3042,2.0586,4.5674l25.6416,27.979c1.5771,1.7217,3.7354,2.5947,5.8994,2.5947
		c1.9307,0,3.8672-0.6948,5.4033-2.1021c3.2568-2.9854,3.4775-8.0459,0.4922-11.3032L157.738,78.8556l-3.7666-35.7773
		c-0.4629-4.3945-4.3994-7.583-8.7939-7.1182c-4.3936,0.4629-7.5811,4.3999-7.1182,8.7939L142.1022,83.1539z"/></svg>