<svg xmlns="http://www.w3.org/2000/svg" enable-background="new 0 0 212.587 135.768" viewBox="0 0 212.587 135.768"><path d="M67.4315,23.0794c-1.3226,1.1596-3.0505,1.868-4.9477,1.868c-4.1509,0-7.5158-3.3649-7.5158-7.5158
		s3.3649-7.5158,7.5158-7.5158c2.3248,0,4.4022,1.0564,5.7808,2.7144c1.1485-3.2499,3.0918-6.1182,5.6029-8.3809
		C70.8121,1.6082,66.8394,0,62.4838,0c-9.6272,0-17.4316,7.8044-17.4316,17.4316s7.8044,17.4316,17.4316,17.4316
		c3.363,0,6.4925-0.9686,9.1556-2.6183C69.5295,29.64,68.0566,26.5074,67.4315,23.0794z"/><path d="M62.4838 14.7158c-1.4999 0-2.7158 1.2159-2.7158 2.7158s1.2159 2.7158 2.7158 2.7158 2.7158-1.2159 2.7158-2.7158S63.9837 14.7158 62.4838 14.7158zM50.9442 50.5379c-1.1946-12.3702-12.1895-21.4275-24.5587-20.233C14.0163 31.4995 4.958 42.4935 6.1526 54.8636c.7476 7.7411 5.3347 14.1853 11.6946 17.6312h21.4111C46.9686 68.3187 51.8401 59.8143 50.9442 50.5379zM72.5134 72.4948l-5.0625-12.0537c-1.0654-2.5366-1.0801-5.3359-.0391-7.8828 1.04-2.5474 3.0098-4.5366 5.5469-5.6021 1.2725-.5342 2.6133-.8052 3.9844-.8052.1055 0 .2095.0085.3145.0117v-6.6025c-1.636-.2285-3.2946-.2861-4.9305-.187l-1.5096-.0812-.0919-3.1802c-2.524 1.1182-5.3085 1.7513-8.2419 1.7513-2.7464 0-5.3641-.5527-7.7585-1.5397l.4783 16.5602c-.051.905-.0162 1.8365.0804 2.7811l.4861 16.83H72.5134zM97.8571 72.4948h40.8956c2.1042-1.2863 3.6816-2.7128 4.8474-4.2489l30.1919 1.6251 14.1709 56.2456c1.4282 5.6699 6.5195 9.4497 12.1118 9.4492 1.0107 0 2.0386-.1235 3.063-.3818 6.6943-1.6865 10.7539-8.4805 9.0674-15.1748l-16.4214-65.1787c-1.3384-5.312-5.979-9.1338-11.4492-9.4282l-86.4774-4.6548V72.4948z"/><path d="M0,125.7685v10h19.0229v-10h-4.7964l6.0274-30.4316h128.3599l6.0274,30.4316h-4.7964v10h19.0229v-10h-4.032
		l-6.5612-33.1267l-0.5942-2.9999h3.5087c3.8904,0,7.0735-3.183,7.0735-7.0735s-3.183-7.0735-7.0735-7.0735H97.8571v6.0648
		c0.0113,0.7328-0.0561,1.4659-0.2036,2.1899c-0.024,0.1199-0.0588,0.2355-0.087,0.3538c-0.049,0.2031-0.0951,0.4066-0.1566,0.6077
		c-0.0528,0.1732-0.1183,0.3403-0.1799,0.5095c-0.0472,0.1297-0.085,0.2614-0.1376,0.3899
		c-0.0076,0.0185-0.0175,0.0354-0.0251,0.0538c-0.0577,0.1385-0.126,0.2711-0.1895,0.4064
		c-0.0842,0.1807-0.1656,0.3631-0.2593,0.5375c-0.0184,0.034-0.0401,0.0658-0.0589,0.0995
		c-1.0788,1.9548-2.7502,3.491-4.8151,4.4095c-0.0637,0.0285-0.124,0.0629-0.1883,0.0901c-0.0037,0.0015-0.007,0.0036-0.0107,0.0051
		c-0.1147,0.0482-0.2327,0.0827-0.3485,0.1266c-0.1984,0.0753-0.395,0.1545-0.599,0.2177c-0.221,0.0686-0.4458,0.1193-0.6701,0.1727
		c-0.1028,0.0244-0.2025,0.0568-0.3065,0.0781c-0.6759,0.1388-1.3644,0.2102-2.0613,0.2102c-4.1602,0-7.8887-2.478-9.499-6.3135
		l-4.2878-10.2094H7.6788c-3.8904,0-7.0735,3.183-7.0735,7.0735s3.1831,7.0735,7.0735,7.0735h3.5086l-0.5942,2.9999L4.032,125.7685
		H0z"/><path d="M80.1713 84.7898c.1451.3481.3197.6799.5105 1.0011.0413.0699.0827.139.1259.2073.1843.2898.3816.5701.6005.833.0443.0533.0933.1009.1389.1529.1855.2115.3823.412.589.6029.0715.0659.1416.1326.2153.1957.2521.2165.5156.4195.7935.6038.0458.0303.0939.056.1404.0853 1.237.7839 2.6993 1.2443 4.272 1.2443 4.418 0 8-3.5815 8-8V38.1871c-2.47 1.0621-5.1874 1.655-8.0421 1.655-2.8214 0-5.5109-.5755-7.9579-1.6143v30.1033l-2.2998-4.8679V48.4664c-1.1335-.045-2.2935.1425-3.4082.6105-4.0742 1.7109-5.9893 6.4004-4.2783 10.4736L80.1713 84.7898zM87.5154 36.8421c9.6272 0 17.4316-7.8044 17.4316-17.4316S97.1426 1.9789 87.5154 1.9789 70.0838 9.7833 70.0838 19.4105 77.8882 36.8421 87.5154 36.8421zM87.5154 26.9263c-4.1508 0-7.5157-3.3649-7.5157-7.5158s3.3649-7.5158 7.5157-7.5158c4.1509 0 7.5158 3.3649 7.5158 7.5158S91.6663 26.9263 87.5154 26.9263z"/><path d="M87.5154,16.6947c-1.4999,0-2.7158,1.2159-2.7158,2.7158s1.2159,2.7158,2.7158,2.7158
		c1.4999,0,2.7158-1.2159,2.7158-2.7158S89.0153,16.6947,87.5154,16.6947z"/></svg>