<svg xmlns="http://www.w3.org/2000/svg" enable-background="new 0 0 241.419 234.732" viewBox="0 0 241.419 234.732"><path d="M5.5156,6.4796V224.732H0v10h21.0313v-10h-5.5156v-23.084h171.7158c2.9893,0,5.4209,2.4316,5.4209,5.4209v17.6631h-5.5156
		v10h21.0313v-10h-5.5156v-17.6631c0-8.5029-6.918-15.4209-15.4209-15.4209H65.0881l14.1526-27.0404l1.3955-2.6666l37.7581,23.7988
		c3.2864,2.0823,10.8582-9.8683,7.5718-11.9506l-87.3719-55.0705c-3.2864-2.0822-7.6788-1.097-9.7611,2.1894
		c-2.0823,3.2864-1.097,7.6789,2.1893,9.7612l41.1274,25.9226l-1.3956,2.6666L53.802,191.648H15.5156V57.8687h16.1748l4.0107-5.1255
		l-3.1504-2.4648l-2.8096,3.5903H19.4521V37.3004h-3.9365V6.4796H5.5156z"/><path d="M57.1091 126.8425c8.636.1946 16.9856-4.6151 20.8899-12.9378 5.2781-11.2512.4363-24.6481-10.814-29.9258-11.2505-5.2778-24.6478-.4371-29.926 10.814-3.1604 6.7371-2.6887 14.2434.6123 20.3162.8014.2558 1.5854.6047 2.3286 1.0756L57.1091 126.8425zM128.9675 172.6119c.9088-.9093 2.0283-1.4062 3.327-1.4062h55.3262c4.0499 0 7.5402 2.4074 9.139 5.8617l.1426.0064 20.458 49.603c1.9893 4.8232 6.6484 7.7378 11.5605 7.7378 1.5879 0 3.2021-.3047 4.7607-.9478 6.3828-2.6318 9.4219-9.9395 6.79-16.3213l-23.4951-56.9688c-1.8525-4.4932-6.1416-7.5044-10.9971-7.7217l-53.9875-2.4171c-1.095-.4994-2.3031-1.0122-3.6466-1.5483-16.5427-5.2148-29.7787-21.5018-41.286-29.9268-.0718-.0629-.1501-.1176-.2228-.1796v6.8378c0 5.6797-4.6201 10.2998-10.2998 10.2998s-10.2998-4.6201-10.2998-10.2998v-11.7488c-1.9078.7097-3.5961 1.8273-4.899 3.4291-4.6125 5.6687-6.116 15.7166-.1243 25.1341l46.3585 29.2197C128.1514 171.6223 128.6162 172.0785 128.9675 172.6119z"/><path d="M132.2947 188.3531h55.3262c3.8906 0 7.0737-3.1832 7.0737-7.0737v-.0001c0-3.8905-3.1831-7.0737-7.0737-7.0737h-55.3262C128.4041 174.2057 128.4041 188.3531 132.2947 188.3531zM88.5367 125.2211c0 4.4185 3.582 8 8 8s8-3.5815 8-8v-54.377c-2.579.5651-5.2538.8715-7.9999.8715-2.7463 0-5.421-.3064-8.0001-.8715V125.2211zM96.5366 68.7158c18.9753 0 34.3579-15.3826 34.3579-34.3579S115.512 0 96.5366 0 62.1787 15.3826 62.1787 34.3579 77.5613 68.7158 96.5366 68.7158zM80.3683 34.3579c0-8.9296 7.2389-16.1685 16.1683-16.1685 8.9297 0 16.1685 7.2389 16.1685 16.1685s-7.2388 16.1684-16.1685 16.1684C87.6072 50.5263 80.3683 43.2875 80.3683 34.3579z"/><path d="M96.5366,42.5684c4.5347,0,8.2106-3.676,8.2106-8.2105s-3.6759-8.2105-8.2106-8.2105c-4.5344,0-8.2104,3.676-8.2104,8.2105
		S92.0022,42.5684,96.5366,42.5684z"/></svg>