<svg xmlns="http://www.w3.org/2000/svg" enable-background="new 0 0 324.885 307.088" viewBox="0 0 324.885 307.088"><path d="M105.7876 30.302c-2.0569.6294-3.6704 2.0151-4.6414 3.756h13.9678C113.3186 30.8313 109.458 29.1804 105.7876 30.302zM219.0981 30.302c-3.6697-1.1216-7.5308.5293-9.3264 3.756h13.9678C222.7686 32.3171 221.155 30.9314 219.0981 30.302z"/><circle cx="162.443" cy="92.597" r="22.5"/><path d="M278.5898,74.2739c0,2.1997,1.7998,4,4,4h0.7158c2.1992,0,4-1.8003,4-4V52.7158h6.8203V41.916h30.7588v-5.5581H294.126
		V25.5581h-6.8203V4c0-2.2002-1.8008-4-4-4h-0.7158c-2.2002,0-4,1.7998-4,4v32.3579H46.2949V4c0-2.2002-1.7998-4-4-4h-0.7158
		c-2.2002,0-4,1.7998-4,4v21.5581h-6.8213v10.7998H0v5.5581h30.7578v10.7998h6.8213v21.5581c0,2.1997,1.7998,4,4,4h0.7158
		c2.2002,0,4-1.8003,4-4V41.916h2.3h52.3787l25.7769,84.2708c0.4219,1.3799,1.209,2.6191,2.2783,3.5879l6.3684,5.7715v53.5823
		l-8.5302,104.5909c-0.5547,6.807,4.5135,12.7725,11.3182,13.3273c6.8047,0.5542,12.7734-4.5099,13.3281-11.3175l7.4287-91.084
		h7.0022l7.4285,91.084c0.5547,6.8076,6.5234,11.8717,13.3281,11.3175c6.8047-0.5548,11.8732-6.5203,11.3185-13.3273
		l-8.5304-104.5909v-53.5828l6.3679-5.771c1.0693-0.9688,1.8564-2.208,2.2783-3.5879l25.7769-84.2708h52.3782h2.2996V74.2739z
		 M183.479,119.3987l-1.5504,1.4053c-0.0565-0.0012-0.1113-0.0084-0.1681-0.0084h-38.6348c-0.0569,0-0.1119,0.0072-0.1686,0.0084
		l-1.5504-1.4053L117.7059,41.916h89.4739L183.479,119.3987z"/></svg>