<svg xmlns="http://www.w3.org/2000/svg" enable-background="new 0 0 172.22 236.991" viewBox="0 0 172.22 236.991"><circle cx="86.11" cy="22.5" r="22.5"/><path d="M12.2648,14.8522c0.0033-1.6123-1.3132-2.934-2.9246-2.9373l-6.3574-0.0134c-1.6123-0.0034-2.9333,1.3127-2.9368,2.925
		L0,36.7352c-0.0034,1.6123,1.3121,2.9339,2.9244,2.9373l6.3574,0.0134c1.6113,0.0034,2.9335-1.3127,2.9368-2.925l0.0168-7.9688
		l29.7469,0.0624l-0.0167,7.9688c-0.0034,1.6123,1.3132,2.9339,2.9255,2.9373l6.3564,0.0134
		c1.6123,0.0034,2.9343-1.3127,2.9377-2.925l0.0459-21.9086c0.0034-1.6123-1.3131-2.9339-2.9254-2.9373l-6.3564-0.0134
		c-1.6123-0.0034-2.9344,1.3127-2.9377,2.925l-0.0167,7.9688l-2.2078-0.0046l-6.2571-0.0131
		c-1.4553-1.6735-3.5896-2.7426-5.9819-2.7579c-0.0176,0-0.0342,0-0.0518,0c-2.3961,0-4.5436,1.0598-6.0107,2.7325L14.64,22.8259
		l-2.3921-0.005L12.2648,14.8522z"/><path d="M136.9095,57.4305l-27.9033-6.4839c-0.8566-0.1992-1.7117-0.247-2.542-0.1708c-0.3398-0.0457-0.6842-0.0775-1.0367-0.0775
		H66.7927c-0.3534,0-0.6986,0.032-1.0394,0.0779c-0.8301-0.0762-1.6846-0.0286-2.54,0.1704l-27.9033,6.4839l0.1685-26.2897
		l-16.0005-0.0334l-0.2324,36.3593c-0.0156,2.4492,1.0918,4.7705,3.0039,6.2998c1.4326,1.145,3.1982,1.7515,4.9961,1.7515
		c0.6035,0,1.2109-0.0684,1.8105-0.2075l30.0082-6.9732v50.6948l-8.5302,104.59c-0.5547,6.8071,4.5137,12.7725,11.3184,13.3272
		c6.8047,0.5542,12.7733-4.5098,13.328-11.3174l7.4287-91.084h7.0021l7.4287,91.084c0.5547,6.8076,6.5233,11.8716,13.328,11.3174
		c6.8048-0.5547,11.8732-6.5201,11.3185-13.3272l-8.5304-104.5909V68.3373l30.0074,6.973c0.5996,0.1392,1.207,0.2075,1.8105,0.2075
		c1.7979,0,3.5635-0.6064,4.9961-1.7515c1.9121-1.5293,3.0195-3.8506,3.0039-6.2998l-0.2324-36.3593l-16.0005,0.0334
		L136.9095,57.4305z"/><path d="M130.2078,14.9146c-0.0033-1.6123-1.3256-2.9284-2.9379-2.925l-6.3563,0.0134c-1.6123,0.0034-2.9288,1.325-2.9254,2.9373
		l0.0459,21.9086c0.0034,1.6123,1.3254,2.9284,2.9377,2.925l6.3564-0.0134c1.6123-0.0034,2.9289-1.325,2.9255-2.9373l-0.0167-7.9688
		l29.7469-0.0624l0.0168,7.9688c0.0033,1.6123,1.3254,2.9283,2.9368,2.925l6.3574-0.0134c1.6123-0.0034,2.9279-1.325,2.9244-2.9373
		l-0.046-21.9087c-0.0034-1.6123-1.3245-2.9283-2.9368-2.925l-6.3574,0.0134c-1.6113,0.0034-2.9279,1.325-2.9246,2.9373
		l0.0168,7.9687l-2.3921,0.005l-6.8457,0.0144c-1.467-1.6728-3.6145-2.7325-6.0107-2.7325c-0.0176,0-0.0352,0-0.0518,0
		c-2.3923,0.0153-4.5266,1.0844-5.9819,2.7579l-6.2571,0.0131l-2.2078,0.0046L130.2078,14.9146z"/></svg>