<svg xmlns="http://www.w3.org/2000/svg" enable-background="new 0 0 229.166 206.945" viewBox="0 0 229.166 206.945"><path d="M5.5156,6.484v190.2739H0v10h21.0313v-10h-5.5156v-23.084h162.1787c2.9893,0,5.4214,2.4316,5.4214,5.4209v17.6631h-5.5161
		v10h21.0317v-10h-5.5156v-17.6631c0-8.5029-6.918-15.4209-15.4214-15.4209H15.5156V59.4738h16.1743l4.0112-5.1255l-3.1504-2.4648
		l-2.8101,3.5903H19.4521V38.9054h-3.9365V6.484H5.5156z"/><path d="M67.5233 121.9169c-1.1946-12.3702-12.1895-21.4275-24.5587-20.233-12.3693 1.1946-21.4276 12.1885-20.233 24.5587.6536 6.7684 4.2461 12.5407 9.3887 16.189h26.0198C64.4931 137.9178 68.3262 130.2299 67.5233 121.9169zM228.7842 191.3883l-16.4214-65.1787c-1.3384-5.312-5.979-9.1338-11.4492-9.4282l-100.5827-5.4145v13.8542c0 5.6797-4.6201 10.2998-10.2998 10.2998s-10.2998-4.6201-10.2998-10.2998v-13.7438c-4.3253 1.7768-7.4716 5.9034-7.7396 10.8821-.0013.0239.0009.0471-.0002.071-.0223.121-.0498.2399-.0681.3624-.9465 6.343 1.9037 14.3567 9.3379 19.6386h27.8231c1.9432 0 3.4891 1.1033 4.5151 3.0646 1.026-1.9614 2.5723-3.0646 4.516-3.0646h39.295c1.1126-.8851 2.0229-1.8241 2.7687-2.8068l30.192 1.6253 14.1709 56.2456c1.4282 5.6699 6.5195 9.4497 12.1118 9.4492 1.0107 0 2.0386-.1235 3.063-.3818C226.4111 204.8766 230.4707 198.0826 228.7842 191.3883z"/><path d="M118.1155 159.579h55.3264c3.8905 0 7.0737-3.1832 7.0737-7.0737v-.0001c0-3.8905-3.1832-7.0737-7.0737-7.0737h-55.3264C114.225 145.4316 114.225 159.579 118.1155 159.579zM82.0311 125.2211c0 4.4185 3.582 8 8 8s8-3.5815 8-8v-54.377c-2.579.5651-5.2538.8715-7.9999.8715-2.7462 0-5.421-.3064-8.0001-.8715V125.2211zM90.031 68.7158c18.9753 0 34.3579-15.3826 34.3579-34.3579S109.0063 0 90.031 0 55.6731 15.3826 55.6731 34.3579 71.0557 68.7158 90.031 68.7158zM73.8626 34.3579c0-8.9296 7.2388-16.1684 16.1684-16.1684s16.1684 7.2388 16.1684 16.1684S98.9606 50.5263 90.031 50.5263 73.8626 43.2875 73.8626 34.3579z"/><circle cx="90.031" cy="34.358" r="8.21"/><path d="M109.0839,145.4316H28.1155c-3.8905,0-7.0737,3.1832-7.0737,7.0737v0.0001c0,3.8905,3.1832,7.0737,7.0737,7.0737h80.9684
		C112.9744,159.579,112.9744,145.4316,109.0839,145.4316z"/></svg>