<?xml version="1.0" encoding="UTF-8" standalone="no"?>
<svg
   xmlns:dc="http://purl.org/dc/elements/1.1/"
   xmlns:cc="http://creativecommons.org/ns#"
   xmlns:rdf="http://www.w3.org/1999/02/22-rdf-syntax-ns#"
   xmlns:svg="http://www.w3.org/2000/svg"
   xmlns="http://www.w3.org/2000/svg"
   xmlns:sodipodi="http://sodipodi.sourceforge.net/DTD/sodipodi-0.dtd"
   xmlns:inkscape="http://www.inkscape.org/namespaces/inkscape"
   enable-background="new 0 0 324.885 174.94"
   viewBox="0 0 324.885 324"
   version="1.1"
   id="svg8"
   sodipodi:docname="Front squat.svg"
   width="324.88501"
   height="324"
   inkscape:version="0.92.4 (5da689c313, 2019-01-14)">
  <metadata
     id="metadata14">
    <rdf:RDF>
      <cc:Work
         rdf:about="">
        <dc:format>image/svg+xml</dc:format>
        <dc:type
           rdf:resource="http://purl.org/dc/dcmitype/StillImage" />
        <dc:title></dc:title>
      </cc:Work>
    </rdf:RDF>
  </metadata>
  <defs
     id="defs12" />
  <sodipodi:namedview
     pagecolor="#ffffff"
     bordercolor="#666666"
     borderopacity="1"
     objecttolerance="10"
     gridtolerance="10"
     guidetolerance="10"
     inkscape:pageopacity="0"
     inkscape:pageshadow="2"
     inkscape:window-width="1920"
     inkscape:window-height="1017"
     id="namedview10"
     showgrid="false"
     inkscape:zoom="0.87415544"
     inkscape:cx="162.4425"
     inkscape:cy="87.470001"
     inkscape:window-x="-8"
     inkscape:window-y="-8"
     inkscape:window-maximized="1"
     inkscape:current-layer="svg8" />
  <path
     d="m 242.75911,99.608649 h 56.49827 V 157.7813 c 0,3.95459 2.4779,7.19115 5.50704,7.19115 h 0.98549 c 2.56022,0 4.7099,-2.32365 5.3187,-5.42896 0.60839,3.10531 2.75752,5.42896 5.31871,5.42896 h 0.98548 c 2.63691,0 4.85432,-2.45632 5.38396,-5.70205 0.52937,3.24627 2.74609,5.70205 5.38396,5.70205 h 0.98549 c 3.02915,0 5.50704,-3.23566 5.50704,-7.19115 v -38.75689 h 9.3913 V 99.608649 h 42.34614 v -9.992278 h -42.346 V 70.200616 h -9.3913 V 31.443724 c 0,-3.954594 -2.47789,-7.19115 -5.50704,-7.19115 h -0.98549 c -2.63787,0 -4.8546,2.456321 -5.38396,5.702045 -0.52978,-3.246268 -2.74719,-5.702045 -5.38396,-5.702045 h -0.98549 c -2.56105,0 -4.71031,2.32293 -5.3187,5.428601 -0.60867,-3.105671 -2.75834,-5.428601 -5.3187,-5.428601 h -0.98549 c -3.02915,0 -5.50704,3.235668 -5.50704,7.19115 v 58.172647 h -55.91811 v 4.788589 c -1.4e-4,1.807672 -0.20872,3.550982 -0.5803,5.203689 z m -132.86473,0 h 25.23272 c -0.83542,0.10715 -1.65252,0.29664 -2.42227,0.638041 -9.56808,2.74809 -17.75443,12.11205 -24.39276,23.24665 l -0.71344,-17.95594 c -2.59065,4.47469 -6.68706,7.38441 -11.304722,7.38441 -4.27925,0 -8.11298,-2.49839 -10.71492,-6.42458 l 2.78808,70.17792 c 0,9e-4 1.4e-4,0.001 1.4e-4,0.001 0.0173,0.42914 0.0526,0.85431 0.0988,1.27697 0.006,0.0486 0.007,0.0991 0.0124,0.14742 0.0286,0.24324 0.0732,0.48109 0.11124,0.72127 0.25209,1.61047 0.69857,3.12205 1.32128,4.48081 0.0165,0.036 0.0363,0.0693 0.053,0.10529 0.1619,0.3459 0.33124,0.68496 0.51408,1.01054 0.0867,0.15516 0.18421,0.30005 0.27563,0.45089 0.12101,0.19811 0.23831,0.4 0.36704,0.58949 0.12969,0.192 0.27095,0.37125 0.40876,0.55443 0.10353,0.13695 0.20307,0.27885 0.3106,0.41045 0.14745,0.18049 0.30454,0.34823 0.46011,0.51848 0.11331,0.12362 0.22359,0.25115 0.3402,0.36909 0.14676,0.14777 0.30082,0.28404 0.45405,0.42247 0.14181,0.12893 0.28279,0.25888 0.42955,0.37898 0.13479,0.11001 0.27481,0.21124 0.41413,0.31425 0.18063,0.13394 0.36195,0.26518 0.5485,0.38581 0.11965,0.0769 0.24218,0.14813 0.36471,0.21987 0.21725,0.12806 0.43726,0.24844 0.66181,0.35811 0.0527,0.0259 0.10188,0.0593 0.1553,0.0841 0.0746,0.0347 0.1502,0.058 0.2251,0.0905 0.1776,0.0773 0.35617,0.15101 0.53762,0.21663 0.15461,0.0559 0.30922,0.10314 0.46425,0.15012 0.15998,0.048 0.31968,0.0973 0.48228,0.13609 0.20968,0.0506 0.41949,0.0868 0.62917,0.12104 0.1129,0.0182 0.22387,0.0428 0.33759,0.0564 0.34185,0.0418 0.68315,0.0675 1.02265,0.0675 0.0165,0 0.0325,-0.006 0.0489,-0.006 0.17292,-0.001 0.34667,-0.006 0.52083,-0.0181 0.357682,-0.0242 0.709582,-0.0745 1.056802,-0.14153 0.0208,-0.004 0.0421,-0.004 0.0631,-0.009 0.5043,-0.10156 0.99126,-0.26211 1.46941,-0.44872 0.0935,-0.0367 0.18573,-0.0739 0.27825,-0.11374 0.9691,-0.41547 1.87404,-0.99886 2.70037,-1.72552 0.083,-0.0728 0.16604,-0.14436 0.24768,-0.22041 0.39458,-0.368 0.77278,-0.76262 1.12564,-1.19337 0.0716,-0.087 0.13685,-0.18247 0.20666,-0.27219 0.29875,-0.38437 0.57961,-0.7903 0.84326,-1.21638 0.0692,-0.11216 0.14195,-0.21825 0.20886,-0.33349 0.29559,-0.50805 0.56116,-1.0447 0.80347,-1.60147 0.0518,-0.11961 0.10037,-0.24108 0.14952,-0.36315 0.24809,-0.61035 0.47195,-1.23922 0.65135,-1.8963 3.35048,-12.27189 9.42227,-28.08811 15.74904,-39.15708 v 64.45949 l -29.421942,-9.89815 c -5.71136,-1.92237 -11.76842,0.18877 -15.98599,5.56272 -4.21908,5.37484 -5.98299,13.23496 -4.65331,20.73155 l 14.78132,83.34167 c 1.80562,10.17836 8.74463,17.05975 16.416222,17.05975 1.25974,0 2.53971,-0.18608 3.81969,-0.57313 9.07395,-2.74415 14.72762,-14.57449 12.62613,-26.42353 l -8.51196,-47.99339 29.78457,10.02123 c 7.22703,2.43619 14.55291,-1.63993 18.38141,-9.40746 3.82919,7.76446 11.15782,11.83537 18.38114,9.40836 l 29.78594,-10.02213 -8.51196,47.99248 c -2.10273,11.84887 3.54943,23.68029 12.62476,26.42425 1.27998,0.38707 2.55995,0.57313 3.81969,0.57313 7.67172,-8.8e-4 14.6106,-6.8812 16.41498,-17.05884 l 14.78407,-83.34167 c 1.32968,-7.49749 -0.43423,-15.3576 -4.65331,-20.73245 -4.21771,-5.37322 -10.27601,-7.48527 -15.98599,-5.56361 l -29.42386,9.89988 v -64.45789 c 6.32539,11.06376 12.39388,26.86847 15.74533,39.13784 0.18187,0.66788 0.40807,1.30717 0.66071,1.92687 0.0465,0.11474 0.0922,0.22904 0.14098,0.34159 0.24437,0.5627 0.51257,1.10456 0.81146,1.61746 0.0631,0.10859 0.13176,0.20837 0.19702,0.31407 0.2686,0.43543 0.55524,0.84981 0.86075,1.24174 0.0655,0.0839 0.12652,0.17331 0.19357,0.25475 0.35562,0.43416 0.73643,0.83201 1.13445,1.20254 0.0783,0.0726 0.15764,0.14109 0.23735,0.21106 0.82868,0.72989 1.73692,1.31543 2.70933,1.7318 0.0906,0.0388 0.18077,0.0755 0.27205,0.11131 0.47925,0.18732 0.96772,0.3484 1.47327,0.44998 0.0195,0.004 0.0395,0.004 0.0592,0.007 0.34791,0.0675 0.7005,0.11775 1.05914,0.1421 0.17444,0.0129 0.34874,0.0162 0.52207,0.0181 0.0165,1.7e-4 0.0322,0.006 0.0485,0.006 0.33979,0 0.68136,-0.0256 1.02335,-0.0676 0.11138,-0.0129 0.22014,-0.0374 0.33056,-0.0551 0.21271,-0.0345 0.42514,-0.0713 0.63758,-0.12262 0.1597,-0.0381 0.31596,-0.0865 0.47292,-0.13365 0.15901,-0.0479 0.31761,-0.0964 0.47622,-0.15406 0.17691,-0.064 0.35093,-0.13609 0.52441,-0.21125 0.0776,-0.0337 0.15612,-0.058 0.23363,-0.0943 0.0556,-0.0259 0.10656,-0.0606 0.16163,-0.0874 0.21905,-0.10714 0.43341,-0.22472 0.6457,-0.34949 0.12804,-0.0748 0.25581,-0.14903 0.38082,-0.22957 0.17911,-0.11631 0.35355,-0.24234 0.52743,-0.37089 0.14704,-0.10815 0.29449,-0.21518 0.43644,-0.33133 0.13698,-0.1123 0.26833,-0.23389 0.40118,-0.3538 0.16274,-0.14652 0.32602,-0.29142 0.48146,-0.44819 0.10449,-0.10558 0.20321,-0.22023 0.30468,-0.33062 0.1681,-0.18265 0.33716,-0.36404 0.49577,-0.55856 0.0899,-0.11015 0.17278,-0.22941 0.25979,-0.34356 0.15599,-0.20459 0.31363,-0.40702 0.45929,-0.62258 0.10353,-0.15281 0.19715,-0.31659 0.29559,-0.47515 0.11634,-0.18805 0.23749,-0.37106 0.34626,-0.56595 0.14869,-0.26535 0.28388,-0.54418 0.41867,-0.8232 0.0475,-0.0991 0.10174,-0.19272 0.14745,-0.29322 0.4988,-1.09018 0.88402,-2.27888 1.14918,-3.53643 0.0191,-0.0908 0.045,-0.17851 0.0629,-0.26985 0.0273,-0.14038 0.0436,-0.28656 0.0677,-0.42841 0.13506,-0.78689 0.22744,-1.58853 0.25897,-2.40274 l 2.78752,-70.15832 c -2.60194,3.92619 -6.4358,6.42458 -10.71491,6.42458 -4.61766,0 -8.71394,-2.90972 -11.30473,-7.38442 l -0.71343,17.95578 c -6.63847,-11.13389 -14.82428,-20.49713 -24.39208,-23.24577 -0.76864,-0.341931 -1.58644,-0.531781 -2.4231,-0.638751 h 25.233 c -0.37158,-1.652881 -0.58003,-3.39602 -0.58003,-5.203692 v -4.787515 h -36.29431 c -4.79181,3.207978 -10.2135,5.030576 -15.95817,5.030576 -5.74453,0 -11.16608,-1.822784 -15.95776,-5.030576 h -36.2939 v 4.78859 c 1.4e-4,1.807671 -0.2083,3.550996 -0.57989,5.203707 z M 9.0798204,24.252574 h -0.985486 c -2.64517,0 -4.870429,2.470703 -5.39112,5.731897 -0.520278,-3.261194 -2.744848,-5.731897 -5.39112,-5.731897 h -0.985486 c -3.027773,0 -5.5070444,3.236556 -5.5070444,7.19115 v 38.756892 h -9.389922 v 19.415755 h -42.347514 v 9.992278 h 42.347514 v 19.415761 h 9.389922 v 38.75689 c 0,3.95549 2.4792714,7.19115 5.5070444,7.19115 h 0.985486 c 2.646272,0 4.870704,-2.46999 5.39112,-5.73153 0.520691,3.26154 2.74595,5.73153 5.39112,5.73153 h 0.985486 c 2.5613256,0 4.7104496,-2.32293 5.3188396,-5.4286 0.608666,3.10567 2.758341,5.4286 5.318428,5.4286 h 0.985485 c 3.02915,0 5.507044,-3.23566 5.507044,-7.19115 V 99.608649 h 56.484231 c -0.37159,-1.652879 -0.58017,-3.396017 -0.58017,-5.203689 V 89.616371 H 26.209617 V 31.443724 c 0,-3.954594 -2.477894,-7.19115 -5.507044,-7.19115 h -0.985485 c -2.560087,0 -4.709762,2.323646 -5.318428,5.428959 -0.60839,-3.105313 -2.757652,-5.428959 -5.3188396,-5.428959 z"
     id="path2"
     inkscape:connector-curvature="0"
     style="stroke-width:1.57325268" />
  <ellipse
     cx="160.72729"
     cy="48.802979"
     id="circle4"
     rx="30.977121"
     ry="40.450226"
     style="stroke-width:1.57325268" />
  <path
     d="m 83.279678,94.404774 c 0,7.943526 4.93156,14.382296 11.01409,14.382296 6.082532,0 11.014092,-6.43877 11.014092,-14.382296 V 89.40819 c 0,-7.943523 -22.028182,-7.943523 -22.028182,0 z m 132.864592,0 c 0,7.943526 4.93156,14.382296 11.01409,14.382296 6.08253,0 11.01409,-6.43877 11.01409,-14.382296 V 89.40819 c 0,-7.943523 -22.02818,-7.943523 -22.02818,0 z"
     id="path6"
     inkscape:connector-curvature="0"
     style="stroke-width:1.57325268" />
</svg>
