<svg xmlns="http://www.w3.org/2000/svg" enable-background="new 0 0 173.108 330.222" viewBox="0 0 173.108 330.222"><path d="M132.7694 241.5651c1.9636 1.0494 3.6676 2.5161 5 4.2842v-93.0621l-5 8.3101V241.5651zM41.2372 241.5654v-80.4688l-5-8.3098v93.0632C37.5696 244.0818 39.2736 242.615 41.2372 241.5654zM38.8795 74.9027c.781-.3029 1.5671-.587 2.3577-.8527V25.8762c0-4.9896 2.6447-9.3623 6.5972-11.8241 1.5339 3.6797 5.1713 6.2847 9.3899 6.2847h18.4104v50.9058h9.3682V54.6638c-1.4761-.7383-2.4994-2.2485-2.4994-4.0112s1.0233-3.2728 2.4994-4.0112V20.7161h4v25.9247c1.4768.7382 2.5006 2.2487 2.5006 4.0118s-1.0238 3.2737-2.5006 4.0118v16.5781h9.3688V20.3368h18.4105c4.2186 0 7.856-2.6051 9.3898-6.2848 3.9528 2.4618 6.5975 6.8345 6.5975 11.8242v48.1736c.7908.2656 1.5769.5499 2.3582.8529l.0229.0089c.7983-.614 1.6775-1.1218 2.6189-1.5007V25.8762c0-7.5781-4.4856-14.1123-10.9319-17.1357C126.1364 3.8193 121.889 0 116.7821 0H57.2242c-5.1071 0-9.3544 3.8193-10.0554 8.7407-6.4463 3.0234-10.9316 9.5575-10.9316 17.1355v47.5376c.9406.3787 1.8188.8857 2.6167 1.4988L38.8795 74.9027zM118.9852 10.1685c0 2.3265-1.886 4.2126-4.2126 4.2126-2.3265 0-4.2126-1.8861-4.2126-4.2126 0-2.3267 1.8861-4.2126 4.2126-4.2126C117.0992 5.9558 118.9852 7.8418 118.9852 10.1685zM59.2336 5.9558c2.3265 0 4.2126 1.886 4.2126 4.2126 0 2.3265-1.8861 4.2126-4.2126 4.2126s-4.2125-1.8861-4.2125-4.2126C55.0211 7.8418 56.9071 5.9558 59.2336 5.9558z"/><rect width="3" height="48.632" x="62.514" y="22.611"/><polygon points="65.513 277.918 62.514 277.918 62.514 278.335 58.656 278.335 57.549 283.103 57.549 285.321 62.514 285.321 62.514 289.572 57.549 289.572 57.549 296.558 62.514 296.558 62.514 300.81 57.549 300.81 57.549 307.795 62.514 307.795 62.514 316.174 65.513 315.938 65.513 307.795 76.873 307.795 76.873 300.81 65.513 300.81 65.513 296.558 76.873 296.558 76.873 289.572 65.513 289.572 65.513 285.321 76.873 285.321 76.873 278.335 65.513 278.335"/><rect width="3" height="48.632" x="108.493" y="22.611"/><polygon points="108.493 316.009 111.493 316.245 111.493 307.795 115.559 307.795 115.559 300.81 111.493 300.81 111.493 296.558 115.559 296.558 115.559 289.572 111.493 289.572 111.493 285.321 115.559 285.321 115.559 279.232 115.351 278.335 111.493 278.335 111.493 277.918 108.493 277.918 108.493 278.335 96.235 278.335 96.235 285.321 108.493 285.321 108.493 289.572 96.235 289.572 96.235 296.558 108.493 296.558 108.493 300.81 96.235 300.81 96.235 307.795 108.493 307.795"/><path d="M142.1788 326.4602c-1.1348.2632-2.2988.3975-3.458.3979h-.002c-4.8074 0-9.1426-2.2144-11.9546-5.7852l-34.1359-2.4202V274.311h20.1217c.5581 0 1.0991-.0726 1.6206-.1965l-1.396-6.0132-24.1387-4.6831c-.6191-.1201-1.2314-.2793-1.832-.4751-.6016.1958-1.2148.355-1.833.4751l-24.1387 4.6831-1.4318 6.167c.2495.027.5021.0427.7584.0427h20.1206v44.3418l-33.1816 2.3525c-2.8103 3.6111-7.1726 5.8525-12.0107 5.8528-1.1572 0-2.3203-.1338-3.459-.3979-2.7153-.6304-5.1389-1.9719-7.0964-3.855L0 324.3586v5.8629h173.108v-5.8629l-23.8948-1.6941C147.2665 324.5162 144.8652 325.8364 142.1788 326.4602zM109.5033 149.7014c0-12.4268-10.0723-22.5-22.5-22.5-12.4258 0-22.5 10.0732-22.5 22.5 0 7.5017 3.6748 14.1415 9.3186 18.2295h26.3635C105.8291 163.8429 109.5033 157.2031 109.5033 149.7014zM152.6998 85.2719l-.6134 4.0427 8.9122 3.4583 1.8086-4.6621-10.0007-3.8806C152.7867 84.5767 152.7526 84.9243 152.6998 85.2719zM21.2006 84.2301l-10.0007 3.8806 1.8086 4.6621 8.9121-3.4581-.6133-4.0428C21.2545 84.9243 21.2203 84.5767 21.2006 84.2301z"/><path d="M42.9052 81.2081c3.4873-1.2299 7.0803-2.0383 10.7412-2.4135 1.5859-.1625 3.1831-.2523 4.7908-.2523h4.0764v64.069c.6851-2.3625 1.7026-4.5836 3-6.6112V78.5424h10.1211v48.3429c3.4255-1.7139 7.2849-2.6841 11.3684-2.6841 4.0837 0 7.9431.9703 11.3685 2.6841V78.5424h10.1215v57.4584c1.2974 2.0278 2.3149 4.249 3 6.6118V78.5424h4.0779c1.6075 0 3.2048.0898 4.7909.2523 3.6603.3751 7.2531 1.1837 10.74 2.4133.3816-1.6887 1.1478-3.2273 2.2042-4.5187-5.6975-2.0795-11.656-3.147-17.7351-3.147H58.4371c-6.0806 0-12.04 1.0677-17.7379 3.1476C41.7565 77.9812 42.5233 79.5195 42.9052 81.2081zM113.0779 10.1685c0 .9359.7587 1.6947 1.6947 1.6947s1.6948-.7588 1.6948-1.6947c0-.936-.7588-1.6948-1.6948-1.6948S113.0779 9.2324 113.0779 10.1685zM57.5389 10.1685c0 .9359.7588 1.6947 1.6947 1.6947s1.6947-.7588 1.6947-1.6947c0-.936-.7588-1.6948-1.6947-1.6948S57.5389 9.2324 57.5389 10.1685z"/><path d="M32.506,323.5378c0.9326,0.2163,1.8643,0.3203,2.7813,0.3203c5.5693-0.0005,10.6084-3.8242,11.9219-9.4829l11.3408-48.8481
		l26.0498-5.0542c0.8408-0.1631,1.6436-0.4097,2.4043-0.7275c0.7598,0.3179,1.5625,0.5645,2.4033,0.7275l26.0498,5.0542
		l11.3398,48.8481c1.3135,5.6587,6.3516,9.4829,11.9219,9.4829c0.917-0.0005,1.8496-0.104,2.7813-0.3203
		c6.5898-1.5298,10.6924-8.1123,9.1621-14.7026l-13.1367-56.5898c-1.0928-4.709-4.8535-8.335-9.5996-9.2559l-13.877-2.6924v-53.9055
		l26.2935-43.6989c0.54-0.8965,0.8984-1.8896,1.0547-2.9238l8.3369-54.9473c0.6631-4.3682-2.3408-8.4473-6.709-9.1094
		c-4.3691-0.6689-8.4473,2.3408-9.1094,6.709l-8.0996,53.3809l-21.1364,35.1288H69.3274L48.191,135.8021l-8.0996-53.3809
		c-0.6621-4.3682-4.7422-7.3711-9.1094-6.709c-4.3682,0.6621-7.3721,4.7412-6.709,9.1094l8.3369,54.9473
		c0.1563,1.0342,0.5146,2.0273,1.0547,2.9238l26.2925,43.6974v53.907l-13.876,2.6924c-4.7461,0.9209-8.5068,4.5469-9.5996,9.2559
		l-13.1377,56.5898C21.8136,315.425,25.9161,322.0081,32.506,323.5378z"/></svg>