<?xml version="1.0" encoding="UTF-8" standalone="no"?>
<svg
   xmlns:dc="http://purl.org/dc/elements/1.1/"
   xmlns:cc="http://creativecommons.org/ns#"
   xmlns:rdf="http://www.w3.org/1999/02/22-rdf-syntax-ns#"
   xmlns:svg="http://www.w3.org/2000/svg"
   xmlns="http://www.w3.org/2000/svg"
   xmlns:sodipodi="http://sodipodi.sourceforge.net/DTD/sodipodi-0.dtd"
   xmlns:inkscape="http://www.inkscape.org/namespaces/inkscape"
   version="1.1"
   x="0px"
   y="0px"
   viewBox="0 0 512 360"
   xml:space="preserve"
   id="svg20"
   sodipodi:docname="2fa-lock.svg"
   width="512"
   height="360"
   inkscape:version="0.92.4 (5da689c313, 2019-01-14)"><metadata
     id="metadata26"><rdf:RDF><cc:Work
         rdf:about=""><dc:format>image/svg+xml</dc:format><dc:type
           rdf:resource="http://purl.org/dc/dcmitype/StillImage" /><dc:title></dc:title></cc:Work></rdf:RDF></metadata><defs
     id="defs24" /><sodipodi:namedview
     pagecolor="#ffffff"
     bordercolor="#666666"
     borderopacity="1"
     objecttolerance="10"
     gridtolerance="10"
     guidetolerance="10"
     inkscape:pageopacity="0"
     inkscape:pageshadow="2"
     inkscape:window-width="1920"
     inkscape:window-height="1017"
     id="namedview22"
     showgrid="false"
     inkscape:zoom="1.0429825"
     inkscape:cx="118.88307"
     inkscape:cy="288.06638"
     inkscape:window-x="-8"
     inkscape:window-y="-8"
     inkscape:window-maximized="1"
     inkscape:current-layer="svg20" /><path
     d="m 355.33137,322.43039 c 0,0.031 0.009,0.061 0.009,0.092 0,0.031 -0.009,0.06 -0.009,0.091 l 0.009,15.191 c 0.634,5.924 5.068,10.539 10.161,10.539 h 24.662 v -83.794 h -34.867 z"
     id="path2"
     inkscape:connector-curvature="0"
     style="fill:#4451b5;fill-opacity:1" /><path
     d="m 374.25337,216.46739 c 0,-23.667 16.221,-43.611 38.113,-49.267 -14.642,-30.408 -45.216,-49.805 -79.225,-49.805 -0.591,0 -1.147,0 -1.638,0.04 -2.087,0.169 -3.969,-1.315 -4.279,-3.398 -8.168,-54.859999 -56.193,-96.229999 -111.711,-96.229999 -62.292,0 -112.971,50.704 -112.971,113.026999 0,3.465 0.199,6.862 0.373,9.434 0.142,2.095 -1.36,3.942 -3.440003,4.231 -43.133,5.999 -75.66,43.431 -75.66,87.069 0,48.497 39.438,87.953 87.914003,87.953 h 235.599 l -0.032,-54.797 c -0.962,-0.73 -1.593,-1.875 -1.593,-3.176 0,-1.299 0.629,-2.441 1.589,-3.173 l -0.011,-17.754 c -10e-4,-1.061 0.421,-2.079 1.171,-2.829 0.75,-0.751 1.768,-1.173 2.829,-1.173 h 22.972 z M 203.74837,61.361391 c -32.733,0 -59.364,26.617 -59.364,59.334999 0,2.209 -1.791,4 -4,4 -2.209,0 -4,-1.791 -4,-4 0,-37.128999 30.219,-67.334999 67.364,-67.334999 2.209,0 4,1.791 4,4 0,2.209 -1.791,4 -4,4 z"
     id="path4"
     inkscape:connector-curvature="0"
     style="fill:#cccccc;fill-opacity:0.60913706" /><path
     d="m 443.11637,297.98439 c 1.271,0.705 2.06,2.045 2.06,3.498 v 13.938 h 2.844 v -13.938 c 0,-1.464 0.8,-2.811 2.084,-3.512 2.311,-1.26 3.746,-3.673 3.746,-6.297 0,-3.987 -3.241,-7.23 -7.226,-7.23 -4.013,0 -7.277,3.243 -7.277,7.23 0,2.564 1.479,5.04 3.769,6.311 z"
     id="path6"
     inkscape:connector-curvature="0" /><path
     d="m 471.90437,243.62039 h -56.097 v -24.274 c 0,-8.735 7.075,-15.842 15.772,-15.842 8.729,0 15.832,7.106 15.832,15.842 v 6.326 c 0,2.209 1.791,4 4,4 2.209,0 4,-1.791 4,-4 v -6.326 c 0,-13.146 -10.691,-23.842 -23.832,-23.842 -13.108,0 -23.772,10.695 -23.772,23.842 v 24.274 h -19.023 v -19.153 c 0,-23.64 19.198,-42.872 42.796,-42.872 22.73,0 41.223,19.723 41.223,43.965 0,2.209 1.791,4 4,4 2.209,0 4,-1.791 4,-4 0,-28.653 -22.081,-51.965 -49.223,-51.965 -28.009,0 -50.796,22.821 -50.796,50.872 v 19.153 h -2.531 -22.97 l 0.008,12.929 h 139.584 v -12.929 z"
     id="path8"
     inkscape:connector-curvature="0"
     style="fill:#4451b5;fill-opacity:1" /><path
     d="m 398.16337,348.34339 h 86.492 c 5.54,0 10.22,-5.533 10.22,-12.083 v -71.711 h -96.712 z m 48.461,-71.9 c 8.396,0 15.226,6.832 15.226,15.23 0,4.713 -2.185,9.103 -5.83,11.951 v 15.796 c 0,2.209 -1.791,4 -4,4 h -10.844 c -2.209,0 -4,-1.791 -4,-4 v -15.81 c -3.645,-2.868 -5.829,-7.255 -5.829,-11.938 0,-8.397 6.853,-15.229 15.277,-15.229 z"
     id="path10"
     inkscape:connector-curvature="0"
     style="fill:#4451b5;fill-opacity:1" /></svg>